<svg xmlns="http://www.w3.org/2000/svg" xmlns:xlink="http://www.w3.org/1999/xlink" viewBox="0 0 475.87 285.49">
  <defs>
    <style>
      .cls-1 {
        fill: none;
      }

      .cls-2 {
        clip-path: url(#clip-path);
      }

      .cls-3 {
        fill: url(#linear-gradient);
      }
    </style>
    <clipPath id="clip-path" transform="translate(0.64 0.6)">
      <path class="cls-1" d="M85.9,202.22v9.95A3.84,3.84,0,0,1,82,215.91l-75.25-.05A3.77,3.77,0,0,1,3,212.06V200.78a3.86,3.86,0,0,1,1.07-2.48l53.8-60H3.74A3.72,3.72,0,0,1,0,134.59l.07-10.18a3.77,3.77,0,0,1,3.8-3.74l75.25.1a3.77,3.77,0,0,1,3.74,3.8V135.3a4,4,0,0,1-1,2.85L28.16,198.42h54a3.77,3.77,0,0,1,3.74,3.8m90.16,14.85a49,49,0,1,0-48.63-49.35,49.05,49.05,0,0,0,48.63,49.35m.58-79.56a30.56,30.56,0,1,1-30.79,30.34,30.6,30.6,0,0,1,30.79-30.34m159.77,63.17c0-1.37-1.39-2.49-3.12-2.51H296.45v-75a2.48,2.48,0,0,0-2.47-2.5l-12.75,0c-1.37,0-3.16,1.09-3.17,2.47v90.16a2.48,2.48,0,0,0,2.47,2.5l52.65,0c1.73,0,3.24-1.17,3.25-2.54V200.68m135.77,15.2a2.73,2.73,0,0,0,2.52-3.82l-39.22-89.52a2.64,2.64,0,0,0-2.31-1.83H418.86a2.67,2.67,0,0,0-2.33,1.69L375.65,212a2.73,2.73,0,0,0,2.46,3.85H392a2.73,2.73,0,0,0,2.51-1.6L403.15,195H447.8l8.2,19.22a2.73,2.73,0,0,0,2.48,1.64h13.72m-61-38.52L425.84,145,440,177.36ZM275,74.21h0Zm46.61-36.49c-7.29,15.63-29.92,28.36-40.75,33.73-3.43,1.7-5.67,2.67-5.87,2.75h0c-.19-.08-2.43-1-5.87-2.75a144,144,0,0,1-25.61-16,72.61,72.61,0,0,1-8.78-8.3h0a72.73,72.73,0,0,1-8.78,8.29,144,144,0,0,1-25.61,16c-3.43,1.7-5.67,2.66-5.87,2.75h0c-.2-.08-2.44-1-5.87-2.75-10.82-5.37-33.45-18.1-40.74-33.73C141.66,24.58,147.58,8.83,161,2.57a26.91,26.91,0,0,1,27.52,2.74,25.69,25.69,0,0,1,5.88,6.16,25.66,25.66,0,0,1,5.88-6.16A26.7,26.7,0,0,1,216.15,0h.06a27.12,27.12,0,0,1,9.69,1.77c.64.24,1.28.5,1.91.8a27.37,27.37,0,0,1,6.86,4.57l.19.17h0l-.17-.16h0a27.37,27.37,0,0,1,6.86-4.57c.63-.29,1.27-.55,1.91-.8A26.87,26.87,0,0,1,269.06,5.3a25.7,25.7,0,0,1,5.88,6.16,25.71,25.71,0,0,1,5.88-6.16A26.71,26.71,0,0,1,296.68,0h.06a27.21,27.21,0,0,1,11.61,2.57C321.78,8.83,327.69,24.58,321.56,37.73Zm-126,32.2.19-.76v0l-.18.7Zm54.95,208a7.12,7.12,0,0,0,1.43-1.05,8.92,8.92,0,0,0,0-11.9,8.4,8.4,0,0,0-5.76-2.13h-7.9a.55.55,0,0,0-.55.55v20a.55.55,0,0,0,.55.55h2.82a.55.55,0,0,0,.55-.55V279h4.79l3.4,4.6a.87.87,0,0,0,.69.35h2.73a.86.86,0,0,0,.69-1.37Zm-8.87-11.17h4.64a4.58,4.58,0,0,1,3,1.07,5.12,5.12,0,0,1,0,6.2,4.54,4.54,0,0,1-2.93,1.07h-4.67Zm44.85,0a.55.55,0,0,0,.55-.55v-2.82a.55.55,0,0,0-.55-.55H274.4a.54.54,0,0,0-.22,0h-1.74a.55.55,0,0,0-.55.55v20a.55.55,0,0,0,.55.55h14.09a.55.55,0,0,0,.55-.55v-2.82a.55.55,0,0,0-.55-.55H275.81v-4.79h8.27a.55.55,0,0,0,.55-.55v-2.82a.55.55,0,0,0-.55-.55h-8.27v-4.57Zm33.63,5.73h-7.72a.55.55,0,0,0-.55.55v2.82a.55.55,0,0,0,.55.55h4.35v2.29a6.89,6.89,0,1,1,.49-10.4,1.05,1.05,0,0,0,1.47,0L320,267a1.05,1.05,0,0,0,0-1.5,10.81,10.81,0,1,0-3.24,17.71c0,.41.26.73.54.73h2.82c.3,0,.55-.37.55-.82V280h0v-7A.55.55,0,0,0,320.16,272.48ZM343,283.39v-20a.55.55,0,0,0-.55-.55h-2.82a.55.55,0,0,0-.55.55v20a.55.55,0,0,0,.55.55h2.82A.55.55,0,0,0,343,283.39Zm27.2-16.62a3.9,3.9,0,0,1,2.49,1.26.8.8,0,0,0,.94.26l2.18-.86a.82.82,0,0,0,.39-1.19,7.32,7.32,0,0,0-5.44-3.34c-3.11-.45-6.27.59-7.84,2.59a5.41,5.41,0,0,0-.64,5.56c1,2.5,3.58,3.47,5.39,4h.06v0l1.56.42c1.07.31,2.34.81,2.67,1.62a1.51,1.51,0,0,1-.08,1.68c-.7.89-2.51,1.38-4.2,1.14a3.92,3.92,0,0,1-2.48-1.24.84.84,0,0,0-1-.27l-2.12.84a.85.85,0,0,0-.41,1.24,7.33,7.33,0,0,0,5.41,3.31,10.09,10.09,0,0,0,1.45.1,8.17,8.17,0,0,0,6.39-2.7,5.41,5.41,0,0,0,.64-5.56c-1-2.41-3.39-3.4-5.19-3.92h0l-.07,0-.1,0h0l-1.65-.46c-1.06-.31-2.33-.81-2.66-1.62a1.51,1.51,0,0,1,.08-1.68C366.71,267,368.51,266.53,370.2,266.78Zm37.28-3.86h-16a.55.55,0,0,0-.55.55v2.82a.55.55,0,0,0,.55.55h6.06v16.65a.55.55,0,0,0,.55.55h2.82a.55.55,0,0,0,.55-.55V266.84h6.06a.55.55,0,0,0,.55-.55v-2.82A.55.55,0,0,0,407.49,262.92ZM437,278a7.15,7.15,0,0,0,1.43-1.05,8.92,8.92,0,0,0,0-11.9,8.41,8.41,0,0,0-5.76-2.13h-7.9a.55.55,0,0,0-.55.55v20a.55.55,0,0,0,.55.55h2.82a.55.55,0,0,0,.55-.55V279H433l3.41,4.6a.86.86,0,0,0,.69.35h2.73a.86.86,0,0,0,.69-1.37Zm-8.86-11.17h4.64a4.58,4.58,0,0,1,3,1.07,5.12,5.12,0,0,1,0,6.2,4.55,4.55,0,0,1-2.93,1.07h-4.67Zm45.68-3.87h-2.75a.82.82,0,0,0-.68.36l-6.22,9.31L458,263.29a.81.81,0,0,0-.68-.36h-2.75a.82.82,0,0,0-.68,1.27l8,11.92.4.6v6.77a.55.55,0,0,0,.55.55h2.82a.55.55,0,0,0,.55-.55v-6.77l.4-.6,8-11.92A.82.82,0,0,0,473.85,262.92ZM29.93,263H27.28a.69.69,0,0,0-.66.48L22.89,275h0l-.66,2-4.43-13.48a.69.69,0,0,0-.65-.48H13.54a.71.71,0,0,0-.66.48L8.5,277l-.67-2L5.94,269.2l-1.87-5.68h0a.71.71,0,0,0-.67-.49H.78a.71.71,0,0,0-.67.93l4.6,14,1.79,5.45a.71.71,0,0,0,.67.49H9.85a.71.71,0,0,0,.67-.49l2.94-9,1.9-5.83,4.88,14.86a.69.69,0,0,0,.66.48h2.7a.69.69,0,0,0,.66-.48l2-6,4.38-13.45h0A.69.69,0,0,0,29.93,263Zm27.82,3.75a.55.55,0,0,0,.55-.55v-2.81a.55.55,0,0,0-.55-.55H45.67a.53.53,0,0,0-.22,0H43.71a.55.55,0,0,0-.55.55v19.9a.55.55,0,0,0,.55.55h14a.55.55,0,0,0,.55-.55v-2.81a.55.55,0,0,0-.55-.55H47.07v-4.77h8.24a.55.55,0,0,0,.55-.55v-2.81a.55.55,0,0,0-.55-.55H47.07v-4.55Zm29.91-.6c-3.82-3.34-10.1-3.42-12.93-3.25H72.13a.55.55,0,0,0-.55.55v19.9a.55.55,0,0,0,.55.55h2.81l.1,0c.52,0,1.13.05,1.8.05,3.18,0,7.78-.52,10.82-3.14a9.18,9.18,0,0,0,3.15-7.3A9.3,9.3,0,0,0,87.66,266.18Zm-2.55,11.67c-2.4,2.07-6.86,2.32-9.63,2.17V266.8c2.77-.1,7.21.22,9.61,2.33a5.49,5.49,0,0,1,1.8,4.39A5.38,5.38,0,0,1,85.11,277.85Zm33.71-11.67c-3.82-3.34-10.1-3.42-12.93-3.25h-2.61a.55.55,0,0,0-.55.55v19.9a.55.55,0,0,0,.55.55h2.81l.1,0c.52,0,1.13.05,1.8.05,3.18,0,7.78-.52,10.82-3.14a9.18,9.18,0,0,0,3.15-7.3A9.3,9.3,0,0,0,118.82,266.18Zm-2.55,11.67c-2.4,2.07-6.86,2.32-9.63,2.17V266.8c2.77-.1,7.21.22,9.61,2.33a5.49,5.49,0,0,1,1.8,4.39A5.38,5.38,0,0,1,116.27,277.85Zm22.87,5.52v-19.9a.55.55,0,0,0-.55-.55h-2.81a.55.55,0,0,0-.55.55v19.9a.55.55,0,0,0,.55.55h2.81A.55.55,0,0,0,139.14,283.37Zm33.18-20.45h-2.81a.55.55,0,0,0-.55.55v12.88l-10-13.27h0a.55.55,0,0,0-.38-.16h-2.81a.55.55,0,0,0-.55.55v19.9a.55.55,0,0,0,.55.55h2.81a.55.55,0,0,0,.55-.55V270.76l10,12.94.06.08a.54.54,0,0,0,.3.14h2.88a.55.55,0,0,0,.55-.55v-19.9A.55.55,0,0,0,172.32,262.93Zm31.31,9.57h-7.69a.55.55,0,0,0-.55.55v2.81a.55.55,0,0,0,.55.55h4.34v2.28a6.87,6.87,0,1,1,.49-10.37,1,1,0,0,0,1.46,0l1.27-1.26a1.05,1.05,0,0,0,0-1.5,10.77,10.77,0,1,0-3.22,17.65c0,.41.26.73.54.73h2.81c.3,0,.55-.37.55-.82V280h0v-7A.55.55,0,0,0,203.63,272.5Z"/>
    </clipPath>
    <linearGradient id="linear-gradient" x1="-0.64" y1="142.14" x2="475.23" y2="142.14" gradientUnits="userSpaceOnUse">
      <stop offset="0" stop-color="#ff756a"/>
      <stop offset="0.2" stop-color="#fc977b"/>
      <stop offset="0.4" stop-color="#ffb82d"/>
      <stop offset="0.6" stop-color="#a3e048"/>
      <stop offset="0.8" stop-color="#34c6a7"/>
      <stop offset="1" stop-color="#199bc5"/>
    </linearGradient>
  </defs>
  <title>zola-logo-pride</title>
  <g id="Layer_2" data-name="Layer 2">
    <g class="cls-2">
      <path class="cls-3" d="M-.64-.6H475.23V284.89H-.64Z" transform="translate(0.64 0.6)"/>
    </g>
  </g>
</svg>
